<svg width="112" height="112" viewBox="0 0 112 112" fill="none" xmlns="http://www.w3.org/2000/svg">
<g filter="url(#filter0_d_48_1767)">
<rect x="4" y="3" width="100" height="100" rx="16" fill="white" shape-rendering="crispEdges"/>
<path d="M30.5446 91.3504H28.9857L23.0609 83.2231V91.3504H21.502V80.8034H23.0609L29.0007 88.9676V80.8034H30.5446V91.3504Z" fill="#12A548"/>
<path d="M35.3714 91.4982C34.1872 91.4982 33.2203 91.1509 32.4783 90.4527C31.7363 89.7545 31.3616 88.8236 31.3616 87.6525V87.405C31.3616 86.6292 31.5265 85.9347 31.86 85.3215C32.1935 84.7082 32.6545 84.2317 33.2503 83.8881C33.8462 83.5445 34.4907 83.3709 35.1877 83.3709C36.3232 83.3709 37.2076 83.7071 37.8372 84.3794C38.4668 85.0518 38.7816 86.0123 38.7816 87.2609V87.8187H32.8568C32.8793 88.5908 33.1304 89.2152 33.6138 89.6917C34.0972 90.1683 34.7081 90.4047 35.4538 90.4047C35.9822 90.4047 36.4282 90.3086 36.7954 90.1165C37.1627 89.9244 37.4812 89.6659 37.7585 89.3482L38.6729 89.9872C37.9384 90.9958 36.8404 91.5019 35.3751 91.5019L35.3714 91.4982ZM35.1877 84.4718C34.5844 84.4718 34.0785 84.6676 33.67 85.0629C33.2615 85.4581 33.0067 86.0086 32.9093 86.7179H37.2901V86.6181C37.2451 85.9384 37.0427 85.4101 36.6755 85.037C36.3082 84.6639 35.8136 84.4755 35.1877 84.4755V84.4718Z" fill="#12A548"/>
<path d="M42.2706 86.3743L44.2118 83.515H45.9581L43.0988 87.3902L46.048 91.3504H44.3167L42.2968 88.4172L40.2769 91.3504H38.5381L41.4874 87.3902L38.628 83.515H40.3594L42.2743 86.3743H42.2706Z" fill="#12A548"/>
<path d="M51.5979 91.3504C51.5117 91.1952 51.4405 90.9219 51.388 90.5229C50.6947 91.1694 49.8628 91.4945 48.8997 91.4945C48.0378 91.4945 47.3295 91.2765 46.7786 90.8406C46.2278 90.4047 45.9504 89.8505 45.9504 89.1782C45.9504 88.3618 46.2952 87.7301 46.9885 87.2757C47.6818 86.825 48.6561 86.5996 49.9115 86.5996H51.3655V85.9827C51.3655 85.5135 51.2082 85.1404 50.8971 84.8633C50.5861 84.5863 50.1251 84.4459 49.5143 84.4459C48.9821 84.4459 48.5325 84.5678 48.1727 84.8079C47.8129 85.0481 47.6293 85.3399 47.6293 85.6835H46.1266C46.1266 85.2919 46.2802 84.9151 46.5913 84.5493C46.9023 84.1836 47.322 83.8955 47.8504 83.6849C48.3826 83.4743 48.9634 83.3672 49.6005 83.3672C50.6086 83.3672 51.3955 83.5925 51.9689 84.0432C52.5385 84.4939 52.8346 85.1146 52.857 85.9088V89.5144C52.857 90.2347 52.9582 90.8073 53.1643 91.2322V91.3467H51.5979V91.3504ZM49.1171 90.3308C49.5855 90.3308 50.0314 90.2237 50.4512 90.0057C50.8709 89.7877 51.1744 89.507 51.3655 89.1597V87.5527H50.1926C48.3601 87.5527 47.4457 88.033 47.4457 88.9935C47.4457 89.4146 47.6031 89.7434 47.9141 89.9798C48.2252 90.2163 48.6299 90.3345 49.1171 90.3345V90.3308Z" fill="#12A548"/>
<path d="M65.0176 91.1324H62.3119V86.9099H58.3059V91.1324H55.5852V81.0214H58.3059V85.037H62.3119V81.0214H65.0176V91.1324Z" fill="#3F3D3D"/>
<path d="M75.8253 81.025V87.6414C75.8253 88.3913 75.6454 89.0415 75.2894 89.5882C74.9334 90.135 74.42 90.5561 73.7567 90.8406C73.0896 91.1287 72.3027 91.2728 71.392 91.2728C70.0167 91.2728 68.9374 90.9551 68.1467 90.316C67.356 89.6769 66.955 88.8014 66.9363 87.6894V81.0213H69.6719V87.7374C69.7019 88.8457 70.2753 89.3961 71.392 89.3961C71.9542 89.3961 72.3814 89.2557 72.6699 88.9787C72.9585 88.7016 73.1046 88.2509 73.1046 87.6229V81.0176H75.8253V81.025Z" fill="#3F3D3D"/>
<path d="M77.759 91.1324V81.0214H81.8101C83.2603 81.0214 84.3658 81.2615 85.1228 81.738C85.8798 82.2146 86.2583 82.9054 86.2583 83.8142C86.2583 84.3388 86.1234 84.7858 85.8536 85.1552C85.5838 85.5246 85.1903 85.798 84.6694 85.9753C85.2577 86.1157 85.7112 86.3743 86.026 86.7548C86.3408 87.1353 86.4982 87.5971 86.4982 88.1438C86.4982 89.1339 86.1496 89.8801 85.4489 90.3751C84.7481 90.8738 83.71 91.125 82.3385 91.1361H77.759V91.1324ZM80.4797 85.2402H81.8963C82.4921 85.2365 82.9156 85.1367 83.1666 84.9483C83.4215 84.7562 83.5451 84.4755 83.5451 84.106C83.5451 83.6775 83.4065 83.3709 83.1329 83.1825C82.8594 82.9941 82.4171 82.9017 81.8063 82.9017H80.4722V85.2438L80.4797 85.2402ZM80.4797 86.8361V89.2595H82.2635C82.7544 89.2595 83.1329 89.1597 83.3952 88.9565C83.6576 88.7571 83.7887 88.4726 83.7887 88.1069C83.7887 87.2646 83.3203 86.8398 82.3872 86.8361H80.4797Z" fill="#3F3D3D"/>
<path d="M35.1876 84.4717C34.5843 84.4717 34.0784 84.6675 33.6699 85.0628C33.2614 85.4581 33.0066 86.0085 32.9092 86.7178H37.29V86.6181C37.245 85.9383 37.0426 85.4101 36.6754 85.037C36.3081 84.6638 35.8135 84.4754 35.1876 84.4754V84.4717Z" fill="#00E705"/>
<path d="M51.7778 16.4982H69.5221L82.8069 43.8206L69.6346 74.0947H62.6305L56.5259 63.1783L65.0027 43.9056L51.7778 16.4982Z" fill="#3F3D3D"/>
<path d="M54.5585 74.0947H36.8254L23.623 49.0146H41.3599L54.5585 74.0947Z" fill="#00E705"/>
<path d="M50.2376 31.6481H32.5046L23.623 49.0146H41.3599L50.2376 31.6481Z" fill="#12A548"/>
</g>
<defs>
<filter id="filter0_d_48_1767" x="0" y="0" width="112" height="112" filterUnits="userSpaceOnUse" color-interpolation-filters="sRGB">
<feFlood flood-opacity="0" result="BackgroundImageFix"/>
<feColorMatrix in="SourceAlpha" type="matrix" values="0 0 0 0 0 0 0 0 0 0 0 0 0 0 0 0 0 0 127 0" result="hardAlpha"/>
<feOffset dx="2" dy="3"/>
<feGaussianBlur stdDeviation="3"/>
<feComposite in2="hardAlpha" operator="out"/>
<feColorMatrix type="matrix" values="0 0 0 0 0 0 0 0 0 0 0 0 0 0 0 0 0 0 0.1 0"/>
<feBlend mode="normal" in2="BackgroundImageFix" result="effect1_dropShadow_48_1767"/>
<feBlend mode="normal" in="SourceGraphic" in2="effect1_dropShadow_48_1767" result="shape"/>
</filter>
</defs>
</svg>
