<?xml version="1.0" encoding="UTF-8"?>
<svg id="_レイヤー_2" data-name="レイヤー 2" xmlns="http://www.w3.org/2000/svg" viewBox="0 0 568.03 98.02">
  <defs>
    <style>
      .cls-1 {
        fill: #00e705;
      }

      .cls-2 {
        fill: #12a548;
      }

      .cls-3 {
        fill: #3f3d3d;
      }
    </style>
  </defs>
  <g id="_レイヤー_2-2" data-name="レイヤー 2">
    <g>
      <g>
        <path class="cls-2" d="M206.35,97.07h-10.08l-38.29-53.29v53.29h-10.08V27.92h10.08l38.4,53.53V27.92h9.98v69.15Z"/>
        <path class="cls-2" d="M237.55,98.02c-7.66,0-13.9-2.29-18.7-6.86-4.81-4.58-7.21-10.69-7.21-18.36v-1.61c0-5.1,1.07-9.65,3.21-13.65s5.14-7.14,8.99-9.4c3.85-2.26,8.02-3.4,12.51-3.4,7.35,0,13.06,2.2,17.14,6.6,4.07,4.4,6.11,10.7,6.11,18.9v3.66h-38.29c.14,5.07,1.77,9.16,4.88,12.28,3.12,3.12,7.08,4.68,11.89,4.68,3.41,0,6.3-.63,8.67-1.9,2.37-1.27,4.44-2.94,6.22-5.03l5.9,4.18c-4.74,6.62-11.84,9.93-21.32,9.93ZM236.34,51.95c-3.9,0-7.17,1.29-9.82,3.87-2.65,2.58-4.28,6.2-4.91,10.85h28.32v-.66c-.28-4.46-1.6-7.92-3.97-10.38-2.37-2.45-5.57-3.68-9.61-3.68Z"/>
        <path class="cls-2" d="M282.14,64.44l12.54-18.76h11.28l-18.49,25.41,19.07,25.98h-11.18l-13.06-19.23-13.06,19.23h-11.23l19.07-25.98-18.49-25.41h11.18l12.38,18.76Z"/>
        <path class="cls-2" d="M342.43,97.07c-.56-1.01-1.01-2.82-1.36-5.41-4.49,4.24-9.86,6.36-16.09,6.36-5.57,0-10.14-1.43-13.71-4.3-3.57-2.87-5.36-6.5-5.36-10.9,0-5.35,2.24-9.51,6.71-12.47,4.48-2.96,10.77-4.44,18.89-4.44h9.4v-4.04c0-3.07-1.01-5.52-3.03-7.34-2.02-1.82-5-2.73-8.93-2.73-3.45,0-6.34.79-8.67,2.37-2.33,1.58-3.5,3.5-3.5,5.75h-9.72c0-2.56,1-5.04,3-7.43,2-2.39,4.72-4.28,8.15-5.68,3.43-1.39,7.2-2.09,11.31-2.09,6.51,0,11.61,1.48,15.31,4.44,3.69,2.96,5.61,7.04,5.75,12.23v23.65c0,4.72.66,8.47,1.98,11.26v.76h-10.13ZM326.4,90.37c3.03,0,5.9-.71,8.62-2.14,2.72-1.42,4.68-3.28,5.9-5.56v-10.54h-7.57c-11.84,0-17.76,3.15-17.76,9.45,0,2.75,1.01,4.91,3.03,6.46,2.02,1.55,4.61,2.33,7.78,2.33Z"/>
        <path class="cls-3" d="M429.17,95.64h-17.48v-27.69h-25.9v27.69h-17.58V29.35h17.58v26.32h25.9v-26.32h17.48v66.3Z"/>
        <path class="cls-3" d="M499.03,29.35v43.39c0,4.92-1.15,9.18-3.46,12.77-2.3,3.6-5.61,6.34-9.92,8.22-4.31,1.88-9.4,2.82-15.28,2.82-8.88,0-15.88-2.09-20.99-6.28-5.11-4.19-7.71-9.93-7.81-17.21V29.35h17.68v44.03c.2,7.26,3.91,10.88,11.12,10.88,3.64,0,6.39-.91,8.26-2.73,1.87-1.82,2.8-4.78,2.8-8.88V29.35h17.58Z"/>
        <path class="cls-3" d="M511.53,95.64V29.35h26.2c9.38,0,16.52,1.56,21.41,4.69,4.89,3.13,7.34,7.66,7.34,13.61,0,3.43-.87,6.36-2.6,8.79-1.74,2.43-4.29,4.22-7.66,5.37,3.81.91,6.73,2.61,8.77,5.1,2.04,2.49,3.06,5.53,3.06,9.11,0,6.5-2.26,11.38-6.79,14.64-4.53,3.26-11.23,4.93-20.11,4.99h-29.6ZM529.12,56.99h9.17c3.84-.03,6.58-.67,8.21-1.92,1.64-1.25,2.45-3.09,2.45-5.53,0-2.8-.89-4.82-2.65-6.05-1.77-1.23-4.63-1.85-8.56-1.85h-8.62v15.35ZM529.12,67.46v15.89h11.52c3.17,0,5.61-.66,7.31-1.98,1.7-1.32,2.55-3.18,2.55-5.58,0-5.52-3.02-8.3-9.07-8.33h-12.32Z"/>
        <path class="cls-1" d="M236.34,51.95c-3.9,0-7.17,1.29-9.82,3.87-2.65,2.58-4.28,6.2-4.91,10.85h28.32v-.66c-.28-4.46-1.6-7.92-3.97-10.38-2.37-2.45-5.57-3.68-9.61-3.68Z"/>
      </g>
      <polygon class="cls-3" points="46.84 0 76.36 0 98.46 46.11 76.55 97.2 64.89 97.2 54.74 78.78 68.84 46.25 46.84 0"/>
      <polygon class="cls-1" points="51.47 97.2 21.96 97.2 0 54.87 29.5 54.87 51.47 97.2"/>
      <polygon class="cls-2" points="44.28 25.57 14.77 25.57 0 54.87 29.5 54.87 44.28 25.57"/>
    </g>
  </g>
</svg>