<?xml version="1.0" encoding="UTF-8"?>
<svg id="_レイヤー_2" data-name="レイヤー 2" xmlns="http://www.w3.org/2000/svg" viewBox="0 0 280 280">
  <defs>
    <style>
      .cls-1 {
        fill: #fff;
      }

      .cls-2 {
        fill: #00e705;
      }

      .cls-3 {
        fill: #12a548;
      }

      .cls-4 {
        fill: #3f3d3d;
      }
    </style>
  </defs>
  <g id="_レイヤー_2-2" data-name="レイヤー 2">
    <rect class="cls-1" width="280" height="280" rx="64.49" ry="64.49"/>
    <g>
      <g>
        <path class="cls-3" d="M77.41,242.12h-4.16l-15.81-22v22h-4.16v-28.55h4.16l15.85,22.1v-22.1h4.12v28.55Z"/>
        <path class="cls-3" d="M90.29,242.51c-3.16,0-5.74-.94-7.72-2.83-1.98-1.89-2.98-4.41-2.98-7.58v-.67c0-2.1.44-3.98,1.33-5.64s2.12-2.95,3.71-3.88c1.59-.93,3.31-1.4,5.17-1.4,3.03,0,5.39.91,7.07,2.73,1.68,1.82,2.52,4.42,2.52,7.8v1.51h-15.81c.06,2.09.73,3.78,2.02,5.07,1.29,1.29,2.92,1.93,4.91,1.93,1.41,0,2.6-.26,3.58-.78.98-.52,1.83-1.22,2.57-2.08l2.44,1.73c-1.96,2.73-4.89,4.1-8.8,4.1ZM89.79,223.49c-1.61,0-2.96.53-4.05,1.6-1.09,1.07-1.77,2.56-2.03,4.48h11.69v-.27c-.12-1.84-.66-3.27-1.64-4.28-.98-1.01-2.3-1.52-3.97-1.52Z"/>
        <path class="cls-3" d="M108.7,228.65l5.18-7.74h4.66l-7.63,10.49,7.87,10.72h-4.62l-5.39-7.94-5.39,7.94h-4.64l7.87-10.72-7.63-10.49h4.62l5.11,7.74Z"/>
        <path class="cls-3" d="M133.59,242.12c-.23-.42-.42-1.16-.56-2.24-1.85,1.75-4.07,2.63-6.64,2.63-2.3,0-4.19-.59-5.66-1.77-1.47-1.18-2.21-2.68-2.21-4.5,0-2.21.92-3.92,2.77-5.15,1.85-1.22,4.45-1.83,7.8-1.83h3.88v-1.67c0-1.27-.42-2.28-1.25-3.03-.83-.75-2.06-1.13-3.69-1.13-1.42,0-2.62.33-3.58.98-.96.65-1.45,1.44-1.45,2.37h-4.01c0-1.06.41-2.08,1.24-3.07.83-.99,1.95-1.77,3.36-2.34,1.42-.57,2.97-.86,4.67-.86,2.69,0,4.79.61,6.32,1.83,1.52,1.22,2.31,2.9,2.37,5.05v9.76c0,1.95.27,3.5.82,4.65v.31h-4.18ZM126.97,239.35c1.25,0,2.44-.29,3.56-.88,1.12-.59,1.93-1.35,2.44-2.29v-4.35h-3.13c-4.89,0-7.33,1.3-7.33,3.9,0,1.14.42,2.03,1.25,2.67.83.64,1.91.96,3.21.96Z"/>
        <path class="cls-4" d="M169.4,241.53h-7.22v-11.43h-10.69v11.43h-7.26v-27.37h7.26v10.87h10.69v-10.87h7.22v27.37Z"/>
        <path class="cls-4" d="M198.24,214.16v17.91c0,2.03-.48,3.79-1.43,5.27-.95,1.48-2.32,2.62-4.09,3.39-1.78.78-3.88,1.17-6.31,1.17-3.67,0-6.55-.86-8.66-2.59-2.11-1.73-3.18-4.1-3.23-7.11v-18.05h7.3v18.18c.08,3,1.61,4.49,4.59,4.49,1.5,0,2.64-.38,3.41-1.13.77-.75,1.16-1.97,1.16-3.67v-17.88h7.26Z"/>
        <path class="cls-4" d="M203.4,241.53v-27.37h10.81c3.87,0,6.82.65,8.84,1.94,2.02,1.29,3.03,3.16,3.03,5.62,0,1.42-.36,2.63-1.08,3.63s-1.77,1.74-3.16,2.22c1.57.38,2.78,1.08,3.62,2.11.84,1.03,1.26,2.28,1.26,3.76,0,2.68-.93,4.7-2.8,6.04-1.87,1.35-4.64,2.03-8.3,2.06h-12.22ZM210.66,225.57h3.78c1.59-.01,2.72-.28,3.39-.79.68-.52,1.01-1.28,1.01-2.28,0-1.16-.37-1.99-1.1-2.5-.73-.51-1.91-.76-3.54-.76h-3.56v6.34ZM210.66,229.89v6.56h4.76c1.31,0,2.32-.27,3.02-.82.7-.54,1.05-1.31,1.05-2.3,0-2.28-1.25-3.43-3.74-3.44h-5.09Z"/>
        <path class="cls-2" d="M89.79,223.49c-1.61,0-2.96.53-4.05,1.6-1.09,1.07-1.77,2.56-2.03,4.48h11.69v-.27c-.12-1.84-.66-3.27-1.64-4.28-.98-1.01-2.3-1.52-3.97-1.52Z"/>
      </g>
      <polygon class="cls-4" points="134.07 39.49 181.42 39.49 216.87 113.45 181.72 195.4 163.02 195.4 146.74 165.85 169.35 113.68 134.07 39.49"/>
      <polygon class="cls-2" points="141.49 195.4 94.17 195.4 58.94 127.51 106.26 127.51 141.49 195.4"/>
      <polygon class="cls-3" points="129.96 80.5 82.63 80.5 58.94 127.51 106.26 127.51 129.96 80.5"/>
    </g>
  </g>
</svg>