<svg width="120" height="21" viewBox="0 0 120 21" fill="none" xmlns="http://www.w3.org/2000/svg">
<g clip-path="url(#clip0_55_1985)">
<path d="M3.16878 5.55322H9.19031L6.1806 11.7867L10.815 20.6556H4.67469L0 11.8658L3.16878 5.55322Z" fill="white"/>
<path d="M9.90308 0H16.124L20.7796 9.79729L16.1622 20.6556H13.706L11.5681 16.741L14.5375 9.82938L9.90308 0Z" fill="white"/>
<path d="M43.4955 20.7967H41.3618L33.2617 9.4293V20.7967H31.1279V6.04517H33.2617L41.383 17.4639V6.04517H43.4934V20.7967H43.4955Z" fill="white"/>
<path d="M50.0961 20.9999C48.4757 20.9999 47.1564 20.5122 46.1405 19.5368C45.1245 18.5613 44.6155 17.2564 44.6155 15.62V15.2756C44.6155 14.1889 44.8424 13.2177 45.2942 12.3621C45.746 11.5064 46.3802 10.839 47.1946 10.3555C48.0091 9.87209 48.8914 9.63037 49.8416 9.63037C51.3963 9.63037 52.6032 10.101 53.4664 11.0379C54.3275 11.977 54.7602 13.3204 54.7602 15.0702V15.851H46.6601C46.6898 16.9313 47.0334 17.804 47.6931 18.4693C48.3527 19.1346 49.1905 19.4683 50.2064 19.4683C50.9276 19.4683 51.5406 19.3335 52.0411 19.064C52.5417 18.7945 52.9807 18.4351 53.3561 17.9902L54.6054 18.8822C53.6043 20.294 52.1005 20.9999 50.0961 20.9999ZM49.8416 11.1727C49.0166 11.1727 48.323 11.4486 47.7652 11.9984C47.2052 12.5482 46.8595 13.3204 46.7259 14.313H52.7156V14.1718C52.6562 13.2199 52.3762 12.4819 51.8757 11.9578C51.3751 11.4337 50.6964 11.1727 49.8416 11.1727Z" fill="white"/>
<path d="M59.5282 13.838L62.1794 9.83569H64.5656L60.6544 15.2563L64.6886 20.7988H62.3237L59.5621 16.6959L56.8006 20.7988H54.425L58.4592 15.2563L54.5481 9.83569H56.913L59.5324 13.838H59.5282Z" fill="white"/>
<path d="M72.2818 20.7968C72.163 20.5807 72.0676 20.1957 71.9955 19.6416C71.0453 20.5465 69.9105 21 68.5913 21C67.412 21 66.4448 20.6941 65.6897 20.0823C64.9347 19.4705 64.5571 18.6961 64.5571 17.757C64.5571 16.6147 65.0301 15.7291 65.9761 15.0981C66.922 14.467 68.254 14.1504 69.9699 14.1504H71.9594V13.2884C71.9594 12.6338 71.7452 12.1118 71.3189 11.7225C70.8904 11.3332 70.2626 11.1407 69.4291 11.1407C68.6994 11.1407 68.0886 11.3097 67.5944 11.6476C67.1002 11.9856 66.8542 12.3942 66.8542 12.8734H64.7989C64.7989 12.3258 65.011 11.7974 65.4352 11.2883C65.8594 10.7792 66.4342 10.3749 67.1596 10.0775C67.885 9.78017 68.6825 9.63257 69.5521 9.63257C70.9286 9.63257 72.0082 9.94916 72.7909 10.5802C73.5714 11.2113 73.9765 12.0819 74.0062 13.19V18.2362C74.0062 19.2438 74.1462 20.0438 74.4262 20.6363V20.7989H72.2818V20.7968ZM68.8882 19.37C69.5288 19.37 70.1375 19.2181 70.7123 18.9143C71.2871 18.6106 71.7028 18.2148 71.9616 17.7292V15.481H70.3602C67.8553 15.481 66.6039 16.1527 66.6039 17.4961C66.6039 18.0843 66.8181 18.5421 67.2444 18.8737C67.6708 19.2052 68.2201 19.37 68.8903 19.37H68.8882Z" fill="white"/>
<path d="M90.6263 20.493H86.9294V14.5868H81.453V20.493H77.7349V6.35107H81.453V11.9663H86.9294V6.35107H90.6263V20.4951V20.493Z" fill="white"/>
<path d="M105.403 6.35107V15.6093C105.403 16.6575 105.159 17.5666 104.672 18.3346C104.184 19.1025 103.486 19.6865 102.574 20.0887C101.662 20.4908 100.587 20.6919 99.3415 20.6919C97.4623 20.6919 95.984 20.2448 94.9023 19.3507C93.8227 18.4565 93.2712 17.2329 93.25 15.6778V6.35107H96.9893V15.7441C97.0317 17.2928 97.8165 18.065 99.3415 18.065C100.111 18.065 100.695 17.8704 101.089 17.4832C101.484 17.0939 101.683 16.4628 101.683 15.59V6.35107H105.401H105.403Z" fill="white"/>
<path d="M108.048 20.493V6.35107H113.588C115.574 6.35107 117.084 6.68478 118.117 7.35219C119.152 8.01961 119.669 8.9865 119.669 10.2572C119.669 10.9887 119.485 11.6134 119.118 12.131C118.751 12.6487 118.21 13.0316 117.497 13.2776C118.303 13.4723 118.921 13.8338 119.351 14.3665C119.782 14.897 119.998 15.5451 119.998 16.3088C119.998 17.695 119.519 18.7367 118.562 19.432C117.606 20.1272 116.187 20.4823 114.307 20.4951H108.046L108.048 20.493ZM111.769 12.2466H113.707C114.519 12.2401 115.098 12.1032 115.444 11.838C115.79 11.5706 115.964 11.1791 115.964 10.6593C115.964 10.0625 115.777 9.63252 115.402 9.36941C115.026 9.10629 114.424 8.97581 113.59 8.97581H111.769V12.2487V12.2466ZM111.769 14.4798V17.8704H114.206C114.876 17.8704 115.391 17.7292 115.752 17.4468C116.112 17.1645 116.293 16.7687 116.293 16.2575C116.293 15.0788 115.654 14.4862 114.375 14.4798H111.769Z" fill="white"/>
</g>
<defs>
<clipPath id="clip0_55_1985">
<rect width="120" height="21" fill="white"/>
</clipPath>
</defs>
</svg>
